<?xml version="1.0" encoding="UTF-8" standalone="no"?>
<svg
   version="1.1"
   width="512"
   height="512"
   style="clip-rule:evenodd;fill-rule:evenodd;image-rendering:optimizeQuality;shape-rendering:geometricPrecision;text-rendering:geometricPrecision"
   id="svg79"
   sodipodi:docname="icon.svg"
   inkscape:version="1.4.2 (ebf0e940d0, 2025-05-08)"
   xmlns:inkscape="http://www.inkscape.org/namespaces/inkscape"
   xmlns:sodipodi="http://sodipodi.sourceforge.net/DTD/sodipodi-0.dtd"
   xmlns="http://www.w3.org/2000/svg"
   xmlns:svg="http://www.w3.org/2000/svg">
  <defs
     id="defs79">
    <inkscape:perspective
       sodipodi:type="inkscape:persp3d"
       inkscape:vp_x="0 : 159 : 1"
       inkscape:vp_y="0 : 1000 : 0"
       inkscape:vp_z="726 : 159 : 1"
       inkscape:persp3d-origin="363 : 41.33333 : 1"
       id="perspective80" />
  </defs>
  <sodipodi:namedview
     id="namedview79"
     pagecolor="#ffffff"
     bordercolor="#999999"
     borderopacity="1"
     inkscape:showpageshadow="2"
     inkscape:pageopacity="0"
     inkscape:pagecheckerboard="0"
     inkscape:deskcolor="#d1d1d1"
     inkscape:zoom="1.0206612"
     inkscape:cx="363.48988"
     inkscape:cy="353.20243"
     inkscape:window-width="1918"
     inkscape:window-height="1038"
     inkscape:window-x="0"
     inkscape:window-y="20"
     inkscape:window-maximized="1"
     inkscape:current-layer="svg79" />
  <circle
     style="fill:none;stroke:#000000;stroke-width:10.7686;stroke-dasharray:none"
     id="path86"
     cx="256"
     cy="256"
     r="250.61568" />
  <circle
     style="clip-rule:evenodd;fill:none;fill-rule:evenodd;stroke:#000000;stroke-width:10.0114;stroke-dasharray:none;image-rendering:optimizeQuality;shape-rendering:geometricPrecision;text-rendering:geometricPrecision"
     id="path86-6"
     cx="256"
     cy="256"
     r="232.99429" />
  <g
     id="g80"
     inkscape:label="text"
     transform="matrix(0.61062894,0,0,0.61062894,12.988704,56.324337)"
     style="clip-rule:evenodd;fill-rule:evenodd;image-rendering:optimizeQuality;shape-rendering:geometricPrecision;text-rendering:geometricPrecision">
    <g
       id="g1">
      <path
         style="opacity:0.971"
         fill="#fcdc00"
         d="m 676.5,74.5 c -0.667,0.6667 -1.333,1.3333 -2,2 -0.36,10.2454 -1.36,20.4121 -3,30.5 -53.323,14.276 -106.657,28.442 -160,42.5 -0.63,-11.09 0.037,-21.923 2,-32.5 54.433,-14.999 108.767,-29.166 163,-42.5 z"
         id="path1" />
    </g>
    <g
       id="g2">
      <path
         style="opacity:0.999"
         fill="#fcd700"
         d="m 674.5,76.5 c 0,18.6667 0,37.333 0,56 -14.873,2.907 -29.54,6.574 -44,11 -0.667,0 -1,0.333 -1,1 -0.99,5.81 -1.323,11.81 -1,18 -23.413,5.686 -46.746,11.686 -70,18 0,-6 0,-12 0,-18 -1.291,-0.237 -2.291,0.096 -3,1 -0.992,-0.172 -1.658,0.162 -2,1 -1.915,-0.284 -3.581,0.049 -5,1 -11.487,2.372 -22.82,5.372 -34,9 -0.667,-5.485 -1.333,-10.819 -2,-16 -0.838,-0.342 -1.172,-1.008 -1,-2 0,-2.333 0,-4.667 0,-7 53.343,-14.058 106.677,-28.224 160,-42.5 1.64,-10.0879 2.64,-20.2546 3,-30.5 z"
         id="path2" />
    </g>
    <g
       id="g3">
      <path
         style="opacity:0.992"
         fill="#802600"
         d="m 676.5,74.5 c 16.09,11.8903 32.424,23.557 49,35 0,29.667 0,59.333 0,89 -5.1,0.922 -10.1,2.255 -15,4 -1,75.664 -1.333,151.33 -1,227 -25.278,6.278 -50.444,12.944 -75.5,20 -14.597,-11.309 -29.764,-22.642 -45.5,-34 -1.5,-1.679 -3.333,-3.012 -5.5,-4 -0.5,-8.994 -0.666,-17.994 -0.5,-27 15.499,-4.792 31.165,-9.126 47,-13 0.999,-11.648 1.332,-23.314 1,-35 0,-7 0,-14 0,-21 0,-6.667 0,-13.333 0,-20 0,-6.667 0,-13.333 0,-20 0,-6 0,-12 0,-18 0,-8.333 0,-16.667 0,-25 0,-4 0,-8 0,-12 0.998,-25.161 1.331,-50.495 1,-76 14.652,-3.244 28.986,-7.244 43,-12 0,-18.667 0,-37.3333 0,-56 0.667,-0.6667 1.333,-1.3333 2,-2 z"
         id="path3" />
    </g>
    <g
       id="g4">
      <path
         style="opacity:0.962"
         fill="#fcdc00"
         d="m 490.5,142.5 c 1.238,3.238 2.904,6.238 5,9 0,1 0,2 0,3 -51.024,13.34 -102.024,26.84 -153,40.5 -0.805,4.749 -1.305,9.582 -1.5,14.5 -0.278,0.916 -0.778,1.582 -1.5,2 0,-16 0,-32 0,-48 32.241,-8.435 64.408,-17.102 96.5,-26 0.333,0.667 0.667,1.333 1,2 6.501,-2.798 13.168,-4.131 20,-4 2.068,-0.894 4.235,-1.56 6.5,-2 3.328,0.005 6.662,0.005 10,0 6.688,1.321 12.355,4.321 17,9 z"
         id="path4" />
    </g>
    <g
       id="g5">
      <path
         style="opacity:1"
         fill="#fcd100"
         d="m 629.5,144.5 c 0.315,19.371 -0.352,38.704 -2,58 -22.834,6.416 -45.667,12.75 -68.5,19 -0.198,-1.882 -0.698,-3.548 -1.5,-5 0.653,-18.032 -0.014,-35.698 -2,-53 0.709,-0.904 1.709,-1.237 3,-1 0,6 0,12 0,18 23.254,-6.314 46.587,-12.314 70,-18 -0.323,-6.19 0.01,-12.19 1,-18 z"
         id="path5" />
    </g>
    <g
       id="g6">
      <path
         style="opacity:1"
         fill="#b37200"
         d="m 674.5,132.5 c -14.014,4.756 -28.348,8.756 -43,12 0.331,25.505 -0.002,50.839 -1,76 0,-3.667 0,-7.333 0,-11 0,-22 0,-44 0,-66 14.46,-4.426 29.127,-8.093 44,-11 z"
         id="path6" />
    </g>
    <g
       id="g7">
      <path
         style="opacity:1"
         fill="#bf8b00"
         d="m 490.5,142.5 c 0.992,-0.172 1.658,0.162 2,1 1.413,3.161 3.08,6.161 5,9 -0.667,-0.333 -1.333,-0.667 -2,-1 -2.096,-2.762 -3.762,-5.762 -5,-9 z"
         id="path7" />
    </g>
    <g
       id="g8">
      <path
         style="opacity:0.995"
         fill="#fcd700"
         d="m 495.5,151.5 c 0.667,0.333 1.333,0.667 2,1 5.174,8.086 7.507,17.086 7,27 0,5.333 0,10.667 0,16 -22,5.667 -44,11.333 -66,17 0.062,-4.576 -0.605,-8.909 -2,-13 -3.343,-7.332 -9.01,-9.832 -17,-7.5 -1.558,0.21 -2.891,0.71 -4,1.5 -0.333,0 -0.667,0 -1,0 -1.523,8.674 -2.523,17.508 -3,26.5 -24.525,6.96 -48.525,13.127 -72,18.5 0,-9 0,-18 0,-27 0.722,-0.418 1.222,-1.084 1.5,-2 0.195,-4.918 0.695,-9.751 1.5,-14.5 50.976,-13.66 101.976,-27.16 153,-40.5 0,-1 0,-2 0,-3 z"
         id="path8" />
    </g>
    <g
       id="g9">
      <path
         style="opacity:1"
         fill="#b67e00"
         d="m 512.5,158.5 c 0.667,5.181 1.333,10.515 2,16 11.18,-3.628 22.513,-6.628 34,-9 -0.667,0.667 -1.333,1.333 -2,2 -7.77,1.741 -15.437,3.908 -23,6.5 -3.645,0.719 -7.312,1.219 -11,1.5 0,-5.667 0,-11.333 0,-17 z"
         id="path9" />
    </g>
    <g
       id="g10">
      <path
         style="opacity:1"
         fill="#a65f00"
         d="m 553.5,164.5 c 1,0 2,0 3,0 0,24.333 0,48.667 0,73 0,16 0,32 0,48 0,0.333 0,0.667 0,1 -0.333,0 -0.667,0 -1,0 0,-40.333 0,-80.667 0,-121 -2.926,0.961 -5.926,1.627 -9,2 0.667,-0.667 1.333,-1.333 2,-2 1.419,-0.951 3.085,-1.284 5,-1 z"
         id="path10" />
    </g>
    <g
       id="g11">
      <path
         style="opacity:0.995"
         fill="#802600"
         d="m 492.5,143.5 c 6.049,3.928 12.382,8.261 19,13 -0.172,0.992 0.162,1.658 1,2 0,5.667 0,11.333 0,17 3.688,-0.281 7.355,-0.781 11,-1.5 7.563,-2.592 15.23,-4.759 23,-6.5 3.074,-0.373 6.074,-1.039 9,-2 0,40.333 0,80.667 0,121 0,35 0,70 0,105 1.599,0.268 2.932,-0.066 4,-1 7.602,-2.254 15.269,-4.254 23,-6 -0.166,9.006 0,18.006 0.5,27 2.167,0.988 4,2.321 5.5,4 -0.996,0.086 -1.829,-0.248 -2.5,-1 -0.5,15.997 -0.667,31.997 -0.5,48 -23.711,6.125 -47.377,12.458 -71,19 -5.29,-4.233 -11.29,-8.399 -18,-12.5 -0.626,-0.75 -1.126,-1.584 -1.5,-2.5 -1.46,6.823 -1.96,13.823 -1.5,21 -25.364,5.966 -50.531,12.633 -75.5,20 -25.979,-19.577 -51.812,-38.577 -77.5,-57 0.558,-1.29 1.558,-2.123 3,-2.5 23.689,-6.184 47.356,-12.351 71,-18.5 0,-8.667 0,-17.333 0,-26 0,-7.333 0,-14.667 0,-22 0,-6 0,-12 0,-18 0,-6.667 0,-13.333 0,-20 0,-6.667 0,-13.333 0,-20 0,-7.333 0,-14.667 0,-22 2.306,-0.493 4.639,-0.826 7,-1 3.441,-0.199 6.774,0.301 10,1.5 1.428,1.916 2.428,4.083 3,6.5 0.667,38.498 1.333,76.831 2,115 1.291,0.237 2.291,-0.096 3,-1 22.165,-5.706 44.165,-11.706 66,-18 1.164,-35.498 1.331,-71.164 0.5,-107 -0.181,-3.195 -0.681,-6.195 -1.5,-9 -0.768,-4.095 -2.768,-7.428 -6,-10 -2.427,-3.369 -5.427,-6.036 -9,-8 -1.1,-1.058 -2.434,-1.892 -4,-2.5 -4.989,-0.749 -9.989,-1.415 -15,-2 1.071,-0.852 2.071,-1.685 3,-2.5 7.652,-3.168 14.319,-7.835 20,-14 3.087,-3.172 5.421,-6.838 7,-11 1.457,-1.742 2.624,-3.742 3.5,-6 0.904,-5.635 1.404,-11.302 1.5,-17 1.159,-11.493 1.326,-23.159 0.5,-35 -0.383,-0.556 -0.883,-0.889 -1.5,-1 0.507,-9.914 -1.826,-18.914 -7,-27 -1.92,-2.839 -3.587,-5.839 -5,-9 z"
         id="path11" />
    </g>
    <g
       id="g12">
      <path
         style="opacity:0.993"
         fill="#fbcf00"
         d="m 504.5,179.5 c 0.617,0.111 1.117,0.444 1.5,1 0.826,11.841 0.659,23.507 -0.5,35 -0.924,6.332 -2.257,12.665 -4,19 -1.548,0.321 -2.215,1.321 -2,3 -52.59,13.981 -105.256,27.647 -158,41 0.475,-2.582 -0.192,-4.582 -2,-6 0,-11.333 0,-22.667 0,-34 23.475,-5.373 47.475,-11.54 72,-18.5 0.477,-8.992 1.477,-17.826 3,-26.5 0,21 0,42 0,63 1.915,0.284 3.581,-0.049 5,-1 3.418,-2.369 7.085,-4.369 11,-6 2.847,-2.367 4.68,-5.367 5.5,-9 0.5,-13.663 0.667,-27.329 0.5,-41 1.395,4.091 2.062,8.424 2,13 22,-5.667 44,-11.333 66,-17 0,-5.333 0,-10.667 0,-16 z"
         id="path12" />
    </g>
    <g
       id="g13">
      <path
         style="opacity:1"
         fill="#b57300"
         d="m 414.5,193.5 c 0.333,0 0.667,0 1,0 0,20.667 0,41.333 0,62 1.333,0 2.667,0 4,0 -1.419,0.951 -3.085,1.284 -5,1 0,-21 0,-42 0,-63 z"
         id="path13" />
    </g>
    <g
       id="g14">
      <path
         style="opacity:1"
         fill="#d6a600"
         d="m 553.5,164.5 c 0.342,-0.838 1.008,-1.172 2,-1 1.986,17.302 2.653,34.968 2,53 0,7 0,14 0,21 -0.333,0 -0.667,0 -1,0 0,-24.333 0,-48.667 0,-73 -1,0 -2,0 -3,0 z"
         id="path14" />
    </g>
    <g
       id="g15">
      <path
         style="opacity:0.954"
         fill="#fcdc00"
         d="m 217.5,214.5 c 0.61,0.891 0.943,1.891 1,3 0.52,2.693 2.02,4.693 4.5,6 0.49,1.293 0.657,2.627 0.5,4 -49.771,12.693 -99.438,25.86 -149,39.5 -0.6253,2.8 -1.292,5.634 -2,8.5 -0.9993,14.652 -1.3326,29.318 -1,44 -0.3333,0 -0.6667,0 -1,0 0,-28 0,-56 0,-84 37.886,-10.262 75.719,-19.929 113.5,-29 0.333,0.667 0.667,1.333 1,2 1.667,-0.667 3.333,-1.333 5,-2 3.751,-0.616 7.418,0.05 11,2 4.125,-0.577 7.958,0.423 11.5,3 0.586,-0.209 1.086,-0.543 1.5,-1 1.646,0.36 2.812,1.693 3.5,4 z"
         id="path15" />
    </g>
    <g
       id="g16">
      <path
         style="opacity:1"
         fill="#812900"
         d="m 436.5,199.5 c 0.167,13.671 0,27.337 -0.5,41 -0.82,3.633 -2.653,6.633 -5.5,9 -3.915,1.631 -7.582,3.631 -11,6 -1.333,0 -2.667,0 -4,0 0,-20.667 0,-41.333 0,-62 1.109,-0.79 2.442,-1.29 4,-1.5 7.99,-2.332 13.657,0.168 17,7.5 z"
         id="path16" />
    </g>
    <g
       id="g17">
      <path
         style="opacity:1"
         fill="#fcc600"
         d="m 630.5,143.5 c 0,22 0,44 0,66 -1.209,4.118 -1.876,8.451 -2,13 -23.109,5.527 -46.109,11.527 -69,18 -0.676,-1.102 -1.342,-2.102 -2,-3 0,-7 0,-14 0,-21 0.802,1.452 1.302,3.118 1.5,5 22.833,-6.25 45.666,-12.584 68.5,-19 1.648,-19.296 2.315,-38.629 2,-58 0,-0.667 0.333,-1 1,-1 z"
         id="path17" />
    </g>
    <g
       id="g18">
      <path
         style="opacity:0.625"
         fill="#9a5800"
         d="m 222.5,217.5 c 0.333,1.333 0.667,2.667 1,4 -1.353,-1.683 -3.02,-3.016 -5,-4 -0.057,-1.109 -0.39,-2.109 -1,-3 0.617,-0.111 1.117,-0.444 1.5,-1 0.69,1.85 1.856,3.184 3.5,4 z"
         id="path18" />
    </g>
    <g
       id="g19">
      <path
         style="opacity:1"
         fill="#fcba00"
         d="m 630.5,209.5 c 0,3.667 0,7.333 0,11 0,4 0,8 0,12 -1.117,2.261 -2.45,4.428 -4,6.5 -23.122,6.45 -46.122,12.284 -69,17.5 0,-6.333 0,-12.667 0,-19 0.658,0.898 1.324,1.898 2,3 22.891,-6.473 45.891,-12.473 69,-18 0.124,-4.549 0.791,-8.882 2,-13 z"
         id="path19" />
    </g>
    <g
       id="g20">
      <path
         style="opacity:0.996"
         fill="#fcd700"
         d="m 218.5,217.5 c 1.98,0.984 3.647,2.317 5,4 3.228,4.943 5.228,10.276 6,16 0,10.333 0,20.667 0,31 -19.132,5.432 -38.298,10.766 -57.5,16 0.083,-3.811 -0.75,-7.145 -2.5,-10 0.38,-2.198 -0.287,-3.865 -2,-5 -0.16,-1.653 -0.826,-2.986 -2,-4 -0.111,-0.617 -0.444,-1.117 -1,-1.5 -2.333,-0.167 -4.667,-0.333 -7,-0.5 -3.641,-0.185 -6.974,0.481 -10,2 -0.333,0 -0.667,0 -1,0 -0.617,0.111 -1.117,0.444 -1.5,1 -0.5,8.327 -0.666,16.66 -0.5,25 -22.922,6.314 -45.9219,12.481 -69,18.5 -1.3635,3.232 -2.6968,6.399 -4,9.5 -0.3326,-14.682 7e-4,-29.348 1,-44 0.708,-2.866 1.3747,-5.7 2,-8.5 49.562,-13.64 99.229,-26.807 149,-39.5 0.157,-1.373 -0.01,-2.707 -0.5,-4 -2.48,-1.307 -3.98,-3.307 -4.5,-6 z"
         id="path20" />
    </g>
    <g
       id="g21">
      <path
         style="opacity:1"
         fill="#a55e00"
         d="m 505.5,215.5 c -0.096,5.698 -0.596,11.365 -1.5,17 -0.876,2.258 -2.043,4.258 -3.5,6 0.333,-1.333 0.667,-2.667 1,-4 1.743,-6.335 3.076,-12.668 4,-19 z"
         id="path21" />
    </g>
    <g
       id="g22">
      <path
         style="opacity:0.989"
         fill="#fcca00"
         d="m 501.5,234.5 c -0.333,1.333 -0.667,2.667 -1,4 -1.579,4.162 -3.913,7.828 -7,11 -50.717,12.97 -101.217,26.637 -151.5,41 -0.852,-1.071 -1.685,-2.071 -2.5,-3 0,-5 0,-10 0,-15 1.808,1.418 2.475,3.418 2,6 52.744,-13.353 105.41,-27.019 158,-41 -0.215,-1.679 0.452,-2.679 2,-3 z"
         id="path22" />
    </g>
    <g
       id="g23">
      <path
         style="opacity:1"
         fill="#fcad00"
         d="m 630.5,232.5 c 0,8.333 0,16.667 0,25 -0.79,-1.109 -1.29,-2.442 -1.5,-4 -0.494,1.634 -0.66,3.301 -0.5,5 -22.95,5.482 -45.783,11.482 -68.5,18 -0.772,-0.145 -1.439,-0.478 -2,-1 -0.5,-6.325 -0.666,-12.658 -0.5,-19 22.878,-5.216 45.878,-11.05 69,-17.5 1.55,-2.072 2.883,-4.239 4,-6.5 z"
         id="path23" />
    </g>
    <g
       id="g24">
      <path
         style="opacity:0.989"
         fill="#fcc300"
         d="m 493.5,249.5 c -5.681,6.165 -12.348,10.832 -20,14 -1.459,-0.067 -2.792,0.266 -4,1 -1.291,-0.237 -2.291,0.096 -3,1 -41.691,11.006 -83.358,22.173 -125,33.5 -0.566,0.995 -1.233,1.828 -2,2.5 0,-4.667 0,-9.333 0,-14 0.815,0.929 1.648,1.929 2.5,3 50.283,-14.363 100.783,-28.03 151.5,-41 z"
         id="path24" />
    </g>
    <g
       id="g25">
      <path
         style="opacity:1"
         fill="#fba000"
         d="m 556.5,237.5 c 0.333,0 0.667,0 1,0 0,6.333 0,12.667 0,19 -0.166,6.342 0,12.675 0.5,19 0.561,0.522 1.228,0.855 2,1 22.717,-6.518 45.55,-12.518 68.5,-18 -0.16,-1.699 0.006,-3.366 0.5,-5 0.21,1.558 0.71,2.891 1.5,4 0,6 0,12 0,18 -0.79,-1.109 -1.29,-2.442 -1.5,-4 -0.494,1.634 -0.66,3.301 -0.5,5 -21.394,5.182 -42.727,10.682 -64,16.5 -2.756,0.517 -5.089,1.684 -7,3.5 0.315,-3.871 -0.018,-7.538 -1,-11 0,-16 0,-32 0,-48 z"
         id="path25" />
    </g>
    <g
       id="g26">
      <path
         style="opacity:1"
         fill="#b07200"
         d="m 165.5,265.5 c -5.979,-1.226 -11.979,-1.226 -18,0 3.026,-1.519 6.359,-2.185 10,-2 2.333,0.167 4.667,0.333 7,0.5 0.556,0.383 0.889,0.883 1,1.5 z"
         id="path26" />
    </g>
    <g
       id="g27">
      <path
         style="opacity:0.991"
         fill="#fcbe00"
         d="m 466.5,265.5 c -0.304,0.65 -0.637,1.317 -1,2 4.919,0.448 9.586,1.615 14,3.5 -45.043,11.844 -90.043,23.844 -135,36 -1.823,0.997 -3.49,2.164 -5,3.5 0,-3 0,-6 0,-9 0.767,-0.672 1.434,-1.505 2,-2.5 41.642,-11.327 83.309,-22.494 125,-33.5 z"
         id="path27" />
    </g>
    <g
       id="g28">
      <path
         style="opacity:1"
         fill="#a86400"
         d="m 230.5,248.5 c 1.332,10.646 1.999,21.646 2,33 0,11.172 -0.333,22.172 -1,33 0.33,-19.507 -0.003,-38.841 -1,-58 0,-2.667 0,-5.333 0,-8 z"
         id="path28" />
    </g>
    <g
       id="g29">
      <path
         style="opacity:1"
         fill="#ac6300"
         d="m 473.5,263.5 c -0.929,0.815 -1.929,1.648 -3,2.5 5.011,0.585 10.011,1.251 15,2 1.566,0.608 2.9,1.442 4,2.5 -3.194,-1.258 -6.527,-1.924 -10,-2 -3.672,-0.521 -7.338,-1.187 -11,-2 0.363,-0.683 0.696,-1.35 1,-2 1.208,-0.734 2.541,-1.067 4,-1 z"
         id="path29" />
    </g>
    <g
       id="g30">
      <path
         style="opacity:1"
         fill="#d8a600"
         d="m 230.5,256.5 c 0.997,19.159 1.33,38.493 1,58 -0.761,6.034 -1.761,12.034 -3,18 0,-1.333 0,-2.667 0,-4 0.075,-2.706 0.408,-5.373 1,-8 0.891,-21.319 1.224,-42.652 1,-64 z"
         id="path30" />
    </g>
    <g
       id="g31">
      <path
         style="opacity:0.996"
         fill="#fcb800"
         d="m 469.5,264.5 c -0.304,0.65 -0.637,1.317 -1,2 3.662,0.813 7.328,1.479 11,2 3.344,1.818 7.011,2.818 11,3 -0.14,1.624 0.527,2.79 2,3.5 -47.333,12.667 -94.667,25.333 -142,38 -3.794,1.274 -7.461,1.774 -11,1.5 0,-1.333 0,-2.667 0,-4 1.51,-1.336 3.177,-2.503 5,-3.5 44.957,-12.156 89.957,-24.156 135,-36 -4.414,-1.885 -9.081,-3.052 -14,-3.5 0.363,-0.683 0.696,-1.35 1,-2 0.709,-0.904 1.709,-1.237 3,-1 z"
         id="path31" />
    </g>
    <g
       id="g32">
      <path
         style="opacity:0.996"
         fill="#fcb100"
         d="m 479.5,268.5 c 3.473,0.076 6.806,0.742 10,2 3.573,1.964 6.573,4.631 9,8 0.178,1.195 0.511,2.362 1,3.5 -0.405,0.945 -1.072,1.612 -2,2 -21.515,6.23 -43.182,11.73 -65,16.5 -3.801,-1.215 -7.467,-1.215 -11,0 -2.361,0.174 -4.694,0.507 -7,1 -1.511,1.458 -2.511,3.291 -3,5.5 -22.672,6.168 -45.339,12.335 -68,18.5 -0.67,-1.791 -1.337,-3.458 -2,-5 0,-0.667 -0.333,-1 -1,-1 -0.61,-0.891 -0.943,-1.891 -1,-3 0,-0.667 0,-1.333 0,-2 3.539,0.274 7.206,-0.226 11,-1.5 47.333,-12.667 94.667,-25.333 142,-38 -1.473,-0.71 -2.14,-1.876 -2,-3.5 -3.989,-0.182 -7.656,-1.182 -11,-3 z"
         id="path32" />
    </g>
    <g
       id="g33">
      <path
         style="opacity:1"
         fill="#812700"
         d="m 165.5,265.5 c 1.174,1.014 1.84,2.347 2,4 0.937,15.638 1.271,31.305 1,47 0,0.333 0,0.667 0,1 -2.338,11.334 -9.338,18.001 -21,20 -1,-23.991 -1.333,-47.991 -1,-72 0.333,0 0.667,0 1,0 6.021,-1.226 12.021,-1.226 18,0 z"
         id="path33" />
    </g>
    <g
       id="g34">
      <path
         style="opacity:1"
         fill="#fc9400"
         d="m 630.5,275.5 c 0,6.667 0,13.333 0,20 -0.79,-1.109 -1.29,-2.442 -1.5,-4 -0.199,1.902 -1.033,3.402 -2.5,4.5 -22.377,5.844 -44.71,11.844 -67,18 -0.691,1.067 -1.191,2.234 -1.5,3.5 -0.5,-6.992 -0.666,-13.992 -0.5,-21 1.911,-1.816 4.244,-2.983 7,-3.5 21.273,-5.818 42.606,-11.318 64,-16.5 -0.16,-1.699 0.006,-3.366 0.5,-5 0.21,1.558 0.71,2.891 1.5,4 z"
         id="path34" />
    </g>
    <g
       id="g35">
      <path
         style="opacity:0.983"
         fill="#fdd100"
         d="m 144.5,291.5 c 0,13.667 0,27.333 0,41 -23.401,5.85 -46.7342,12.017 -70,18.5 -0.6258,0.75 -1.1258,1.584 -1.5,2.5 -0.3333,-2 -0.6667,-4 -1,-6 -0.1829,2.865 -0.6829,5.531 -1.5,8 0,-12 0,-24 0,-36 0.3333,0 0.6667,0 1,0 1.3032,-3.101 2.6365,-6.268 4,-9.5 23.0781,-6.019 46.078,-12.186 69,-18.5 z"
         id="path35" />
    </g>
    <g
       id="g36">
      <path
         style="opacity:1"
         fill="#fca600"
         d="m 498.5,278.5 c 3.232,2.572 5.232,5.905 6,10 0,4 0,8 0,12 -22,5.667 -44,11.333 -66,17 0.163,-2.357 -0.003,-4.69 -0.5,-7 -0.383,-0.556 -0.883,-0.889 -1.5,-1 -0.954,-3.206 -2.287,-6.206 -4,-9 21.818,-4.77 43.485,-10.27 65,-16.5 0.928,-0.388 1.595,-1.055 2,-2 -0.489,-1.138 -0.822,-2.305 -1,-3.5 z"
         id="path36" />
    </g>
    <g
       id="g37">
      <path
         style="opacity:1"
         fill="#fa8700"
         d="m 556.5,285.5 c 0.982,3.462 1.315,7.129 1,11 -0.166,7.008 0,14.008 0.5,21 0.309,-1.266 0.809,-2.433 1.5,-3.5 22.29,-6.156 44.623,-12.156 67,-18 1.467,-1.098 2.301,-2.598 2.5,-4.5 0.21,1.558 0.71,2.891 1.5,4 0,6.667 0,13.333 0,20 -0.333,0 -0.667,0 -1,0 0.162,-2.027 -0.005,-4.027 -0.5,-6 -0.483,0.948 -0.649,1.948 -0.5,3 -23.413,5.686 -46.746,11.686 -70,18 0.237,1.291 -0.096,2.291 -1,3 0.268,-1.599 -0.066,-2.932 -1,-4 0,-14.333 0,-28.667 0,-43 0,-0.333 0,-0.667 0,-1 z"
         id="path37" />
    </g>
    <g
       id="g38">
      <path
         style="opacity:0.987"
         fill="#f9c700"
         d="m 229.5,237.5 c 0.982,3.462 1.315,7.129 1,11 0,2.667 0,5.333 0,8 0.224,21.348 -0.109,42.681 -1,64 -51.394,13.182 -102.728,26.682 -154,40.5 -3.4414,1.318 -4.7747,3.818 -4,7.5 -0.3333,0 -0.6667,0 -1,0 0,-4.333 0,-8.667 0,-13 0.8171,-2.469 1.3171,-5.135 1.5,-8 0.3333,2 0.6667,4 1,6 0.3742,-0.916 0.8742,-1.75 1.5,-2.5 23.2658,-6.483 46.599,-12.65 70,-18.5 0,-13.667 0,-27.333 0,-41 -0.166,-8.34 0,-16.673 0.5,-25 0.383,-0.556 0.883,-0.889 1.5,-1 -0.333,24.009 0,48.009 1,72 11.662,-1.999 18.662,-8.666 21,-20 0,2.667 0,5.333 0,8 20.073,-5.019 40.073,-10.352 60,-16 0.999,-13.65 1.333,-27.317 1,-41 0,-10.333 0,-20.667 0,-31 z"
         id="path38" />
    </g>
    <g
       id="g39">
      <path
         style="opacity:1"
         fill="#b06f00"
         d="m 167.5,269.5 c 1.713,1.135 2.38,2.802 2,5 0.329,14.177 -0.004,28.177 -1,42 0.271,-15.695 -0.063,-31.362 -1,-47 z"
         id="path39" />
    </g>
    <g
       id="g40">
      <path
         style="opacity:1"
         fill="#fcd100"
         d="m 229.5,268.5 c 0.333,13.683 -0.001,27.35 -1,41 -19.927,5.648 -39.927,10.981 -60,16 0,-2.667 0,-5.333 0,-8 0,-0.333 0,-0.667 0,-1 0.996,-13.823 1.329,-27.823 1,-42 1.75,2.855 2.583,6.189 2.5,10 19.202,-5.234 38.368,-10.568 57.5,-16 z"
         id="path40" />
    </g>
    <g
       id="g41">
      <path
         style="opacity:1"
         fill="#fc9a00"
         d="m 504.5,300.5 c 0.311,6.59 -0.022,13.09 -1,19.5 -21.745,5.686 -43.412,11.519 -65,17.5 -0.333,0 -0.667,0 -1,0 0.326,-8.849 -0.007,-17.516 -1,-26 0,-0.667 0,-1.333 0,-2 0.617,0.111 1.117,0.444 1.5,1 0.497,2.31 0.663,4.643 0.5,7 22,-5.667 44,-11.333 66,-17 z"
         id="path41" />
    </g>
    <g
       id="g42">
      <path
         style="opacity:1"
         fill="#fca700"
         d="m 414.5,301.5 c 0,7.333 0,14.667 0,22 -0.768,-0.763 -1.268,-1.763 -1.5,-3 0.229,3.31 -1.271,5.144 -4.5,5.5 -22.309,5.994 -44.643,11.827 -67,17.5 0,-7.667 0,-15.333 0,-23 0.663,1.542 1.33,3.209 2,5 22.661,-6.165 45.328,-12.332 68,-18.5 0.489,-2.209 1.489,-4.042 3,-5.5 z"
         id="path42" />
    </g>
    <g
       id="g43">
      <path
         style="opacity:0.997"
         fill="#802600"
         d="m 222.5,217.5 c 4.543,2.131 8.043,4.798 10.5,8 0.333,-0.333 0.667,-0.667 1,-1 3.667,3.333 7.333,6.667 11,10 1.558,-0.845 2.558,-0.179 3,2 6.349,3.578 12.182,7.744 17.5,12.5 11.473,7.973 22.806,16.14 34,24.5 3.519,3.699 6.019,8.032 7.5,13 2.322,9.523 3.488,19.19 3.5,29 -22.671,6.595 -45.338,12.928 -68,19 -2.652,-0.09 -4.985,0.576 -7,2 -0.996,16.158 -1.33,32.491 -1,49 1.915,0.284 3.581,-0.049 5,-1 22.726,-6.346 45.392,-12.68 68,-19 4.289,-0.988 8.622,-1.821 13,-2.5 3.109,-0.644 5.943,-1.811 8.5,-3.5 0.5,-15.663 0.667,-31.33 0.5,-47 0,-0.667 0.333,-1 1,-1 3.005,1.413 5.505,3.413 7.5,6 0.383,-0.556 0.883,-0.889 1.5,-1 0.057,1.109 0.39,2.109 1,3 0,15.667 0,31.333 0,47 0.323,23.408 -0.011,46.742 -1,70 -8.399,2.559 -16.899,4.892 -25.5,7 -4.435,-1.707 -8.101,-4.374 -11,-8 -6.606,-3.623 -12.606,-7.956 -18,-13 -8.764,4.632 -17.598,9.132 -26.5,13.5 -10.976,2.994 -21.976,5.827 -33,8.5 0.33,38.239 -0.004,76.406 -1,114.5 -25.217,6.762 -50.383,13.595 -75.5,20.5 -0.442,-2.179 -1.442,-2.845 -3,-2 -3.667,-3.333 -7.333,-6.667 -11,-10 -1.558,0.845 -2.558,0.179 -3,-2 -0.333,0.333 -0.667,0.667 -1,1 -3.667,-3.333 -7.333,-6.667 -11,-10 -1.558,0.845 -2.558,0.179 -3,-2 -0.333,0.333 -0.667,0.667 -1,1 -4.667,-4 -9.333,-8 -14,-12 -6.3491,-3.578 -12.1824,-7.744 -17.5,-12.5 -3.6667,-2.333 -7.3333,-4.667 -11,-7 -0.7524,-0.671 -1.0858,-1.504 -1,-2.5 24.0954,-7.421 48.429,-14.088 73,-20 0.999,-38.163 1.332,-76.496 1,-115 2.198,-0.375 4.198,-1.042 6,-2 9.87,-1.296 19.203,-3.963 28,-8 5.461,-1.899 10.795,-4.065 16,-6.5 3.836,-2.75 7.503,-5.583 11,-8.5 5.333,-3.333 9.667,-7.667 13,-13 3.297,-4.562 5.631,-9.562 7,-15 0,-0.667 0.333,-1 1,-1 1.239,-5.966 2.239,-11.966 3,-18 0.667,-10.828 1,-21.828 1,-33 -0.001,-11.354 -0.668,-22.354 -2,-33 0.315,-3.871 -0.018,-7.538 -1,-11 -0.772,-5.724 -2.772,-11.057 -6,-16 -0.333,-1.333 -0.667,-2.667 -1,-4 z"
         id="path43" />
    </g>
    <g
       id="g44">
      <path
         style="opacity:1"
         fill="#fbb200"
         d="m 330.5,311.5 c -0.667,0 -1,0.333 -1,1 -0.333,0 -0.667,0 -1,0 -0.989,5.475 -1.322,11.142 -1,17 -29.898,8.308 -59.898,16.308 -90,24 -0.854,-5.621 -1.187,-11.288 -1,-17 2.286,-0.095 4.286,-0.762 6,-2 22.662,-6.072 45.329,-12.405 68,-19 6.126,-1.74 12.293,-3.407 18.5,-5 0.765,0.07 1.265,0.403 1.5,1 z"
         id="path44" />
    </g>
    <g
       id="g45">
      <path
         style="opacity:1"
         fill="#fc7b00"
         d="m 629.5,315.5 c 0.166,4.346 -10e-4,8.679 -0.5,13 -0.249,1.124 -0.749,2.124 -1.5,3 -22.661,6.165 -45.328,12.332 -68,18.5 -0.626,0.75 -1.126,1.584 -1.5,2.5 -0.5,-6.325 -0.666,-12.658 -0.5,-19 0.904,-0.709 1.237,-1.709 1,-3 23.254,-6.314 46.587,-12.314 70,-18 -0.149,-1.052 0.017,-2.052 0.5,-3 0.495,1.973 0.662,3.973 0.5,6 z"
         id="path45" />
    </g>
    <g
       id="g46">
      <path
         style="opacity:0.997"
         fill="#fcc400"
         d="m 229.5,320.5 c -0.592,2.627 -0.925,5.294 -1,8 -51.316,14.372 -102.816,28.372 -154.5,42 -1.0111,-0.556 -1.8444,-1.222 -2.5,-2 -0.7747,-3.682 0.5586,-6.182 4,-7.5 51.272,-13.818 102.606,-27.318 154,-40.5 z"
         id="path46" />
    </g>
    <g
       id="g47">
      <path
         style="opacity:1"
         fill="#fc8e00"
         d="m 504.5,300.5 c 0.995,12.489 1.329,25.156 1,38 -0.333,0 -0.667,0 -1,0 -21.7,4.886 -43.534,10.553 -65.5,17 -0.499,-5.991 -0.666,-11.991 -0.5,-18 21.588,-5.981 43.255,-11.814 65,-17.5 0.978,-6.41 1.311,-12.91 1,-19.5 z"
         id="path47" />
    </g>
    <g
       id="g48">
      <path
         style="opacity:0.988"
         fill="#fcbe00"
         d="m 228.5,328.5 c 0,1.333 0,2.667 0,4 -0.667,0 -1,0.333 -1,1 -1.012,3.003 -3.012,5.17 -6,6.5 -50.4,13.414 -100.733,26.914 -151,40.5 0,-4 0,-8 0,-12 0.3333,0 0.6667,0 1,0 0.6556,0.778 1.4889,1.444 2.5,2 51.684,-13.628 103.184,-27.628 154.5,-42 z"
         id="path48" />
    </g>
    <g
       id="g49">
      <path
         style="opacity:1"
         fill="#fc9a00"
         d="m 414.5,323.5 c 0,6.667 0,13.333 0,20 -0.768,-0.763 -1.268,-1.763 -1.5,-3 -0.49,1.293 -0.657,2.627 -0.5,4 -23.575,6.102 -47.075,12.435 -70.5,19 -0.5,-6.658 -0.666,-13.325 -0.5,-20 22.357,-5.673 44.691,-11.506 67,-17.5 3.229,-0.356 4.729,-2.19 4.5,-5.5 0.232,1.237 0.732,2.237 1.5,3 z"
         id="path49" />
    </g>
    <g
       id="g50">
      <path
         style="opacity:1"
         fill="#fca700"
         d="m 327.5,329.5 c 0.597,6.46 -0.07,12.626 -2,18.5 -29.267,8.145 -58.6,15.979 -88,23.5 -0.302,-2.873 -0.969,-5.539 -2,-8 0,-9 0,-18 0,-27 2.015,-1.424 4.348,-2.09 7,-2 -1.714,1.238 -3.714,1.905 -6,2 -0.187,5.712 0.146,11.379 1,17 30.102,-7.692 60.102,-15.692 90,-24 z"
         id="path50" />
    </g>
    <g
       id="g51">
      <path
         style="opacity:0.985"
         fill="#fcb800"
         d="m 227.5,333.5 c -1.369,5.438 -3.703,10.438 -7,15 -49.188,12.214 -98.188,25.214 -147,39 -1.062,1.522 -1.7287,3.188 -2,5 -0.3333,0 -0.6667,0 -1,0 0,-4 0,-8 0,-12 50.267,-13.586 100.6,-27.086 151,-40.5 2.988,-1.33 4.988,-3.497 6,-6.5 z"
         id="path51" />
    </g>
    <g
       id="g52">
      <path
         style="opacity:1"
         fill="#fa6e00"
         d="m 629.5,315.5 c 0.333,0 0.667,0 1,0 0,7 0,14 0,21 -0.821,3.141 -1.321,6.475 -1.5,10 -0.5,1.167 -1.333,2 -2.5,2.5 -22.606,6.151 -45.273,11.985 -68,17.5 -1.038,5.285 -1.372,13.285 -1,24 -0.997,-20.16 -1.33,-40.493 -1,-61 0.934,1.068 1.268,2.401 1,4 -0.166,6.342 0,12.675 0.5,19 0.374,-0.916 0.874,-1.75 1.5,-2.5 22.672,-6.168 45.339,-12.335 68,-18.5 0.751,-0.876 1.251,-1.876 1.5,-3 0.499,-4.321 0.666,-8.654 0.5,-13 z"
         id="path52" />
    </g>
    <g
       id="g53">
      <path
         style="opacity:1"
         fill="#943900"
         d="m 421.5,300.5 c 3.533,-1.215 7.199,-1.215 11,0 1.713,2.794 3.046,5.794 4,9 0,0.667 0,1.333 0,2 0,37.333 0,74.667 0,112 -0.667,-38.169 -1.333,-76.502 -2,-115 -0.572,-2.417 -1.572,-4.584 -3,-6.5 -3.226,-1.199 -6.559,-1.699 -10,-1.5 z"
         id="path53" />
    </g>
    <g
       id="g54">
      <path
         style="opacity:1"
         fill="#fc8100"
         d="m 437.5,337.5 c 0.333,0 0.667,0 1,0 -0.166,6.009 10e-4,12.009 0.5,18 21.966,-6.447 43.8,-12.114 65.5,-17 0.31,6.258 -0.024,12.424 -1,18.5 -21.594,5.606 -43.094,11.44 -64.5,17.5 -0.173,-5.516 -0.673,-10.849 -1.5,-16 0,-7 0,-14 0,-21 z"
         id="path54" />
    </g>
    <g
       id="g55">
      <path
         style="opacity:1"
         fill="#f99b00"
         d="m 328.5,312.5 c 0.271,15.695 -0.063,31.362 -1,47 -6.882,1.633 -13.549,3.633 -20,6 -22.608,6.32 -45.274,12.654 -68,19 -1.333,0 -2.667,0 -4,0 0,-7 0,-14 0,-21 1.031,2.461 1.698,5.127 2,8 29.4,-7.521 58.733,-15.355 88,-23.5 1.93,-5.874 2.597,-12.04 2,-18.5 -0.322,-5.858 0.011,-11.525 1,-17 z"
         id="path55" />
    </g>
    <g
       id="g56">
      <path
         style="opacity:0.997"
         fill="#fcb100"
         d="m 220.5,348.5 c -3.333,5.333 -7.667,9.667 -13,13 -44.214,12.138 -88.547,24.138 -133,36 -2.5853,-0.573 -3.5853,-2.239 -3,-5 0.2713,-1.812 0.938,-3.478 2,-5 48.812,-13.786 97.812,-26.786 147,-39 z"
         id="path56" />
    </g>
    <g
       id="g57">
      <path
         style="opacity:1"
         fill="#fb8d00"
         d="m 340.5,319.5 c 0.667,0 1,0.333 1,1 0,7.667 0,15.333 0,23 -0.166,6.675 0,13.342 0.5,20 23.425,-6.565 46.925,-12.898 70.5,-19 -0.157,-1.373 0.01,-2.707 0.5,-4 0.232,1.237 0.732,2.237 1.5,3 0,6.667 0,13.333 0,20 -0.333,0 -0.667,0 -1,0 0.16,-1.699 -0.006,-3.366 -0.5,-5 -0.199,1.902 -1.033,3.402 -2.5,4.5 -23.358,5.752 -46.358,12.252 -69,19.5 0.321,-5.526 -0.012,-10.86 -1,-16 0,-15.667 0,-31.333 0,-47 z"
         id="path57" />
    </g>
    <g
       id="g58">
      <path
         style="opacity:1"
         fill="#b55f00"
         d="m 235.5,336.5 c 0,9 0,18 0,27 0,7 0,14 0,21 1.333,0 2.667,0 4,0 -1.419,0.951 -3.085,1.284 -5,1 -0.33,-16.509 0.004,-32.842 1,-49 z"
         id="path58" />
    </g>
    <g
       id="g59">
      <path
         style="opacity:1"
         fill="#c77100"
         d="m 328.5,312.5 c 0.333,0 0.667,0 1,0 0.167,15.67 0,31.337 -0.5,47 -2.557,1.689 -5.391,2.856 -8.5,3.5 -4.378,0.679 -8.711,1.512 -13,2.5 6.451,-2.367 13.118,-4.367 20,-6 0.937,-15.638 1.271,-31.305 1,-47 z"
         id="path59" />
    </g>
    <g
       id="g60">
      <path
         style="opacity:1"
         fill="#a74000"
         d="m 555.5,286.5 c 0.333,0 0.667,0 1,0 0,14.333 0,28.667 0,43 -0.33,20.507 0.003,40.84 1,61 0.667,0 1.333,0 2,0 -1.068,0.934 -2.401,1.268 -4,1 0,-35 0,-70 0,-105 z"
         id="path60" />
    </g>
    <g
       id="g61">
      <path
         style="opacity:1"
         fill="#fa6200"
         d="m 630.5,336.5 c 0.332,11.686 -10e-4,23.352 -1,35 -15.835,3.874 -31.501,8.208 -47,13 -7.731,1.746 -15.398,3.746 -23,6 -0.667,0 -1.333,0 -2,0 -0.372,-10.715 -0.038,-18.715 1,-24 22.727,-5.515 45.394,-11.349 68,-17.5 1.167,-0.5 2,-1.333 2.5,-2.5 0.179,-3.525 0.679,-6.859 1.5,-10 z"
         id="path61" />
    </g>
    <g
       id="g62">
      <path
         style="opacity:1"
         fill="#b45000"
         d="m 436.5,311.5 c 0.993,8.484 1.326,17.151 1,26 0,7 0,14 0,21 0,6.333 0,12.667 0,19 0,7 0,14 0,21 -0.634,8.403 0.033,16.403 2,24 -0.709,0.904 -1.709,1.237 -3,1 0,-37.333 0,-74.667 0,-112 z"
         id="path62" />
    </g>
    <g
       id="g63">
      <path
         style="opacity:0.98"
         fill="#fcab00"
         d="m 207.5,361.5 c -3.497,2.917 -7.164,5.75 -11,8.5 -5.205,2.435 -10.539,4.601 -16,6.5 -9.526,2.378 -18.86,5.045 -28,8 -26.62,8.362 -53.4535,15.695 -80.5,22 -0.2784,0.916 -0.7784,1.582 -1.5,2 0,-5.333 0,-10.667 0,-16 0.3333,0 0.6667,0 1,0 -0.5853,2.761 0.4147,4.427 3,5 44.453,-11.862 88.786,-23.862 133,-36 z"
         id="path63" />
    </g>
    <g
       id="g64">
      <path
         style="opacity:1"
         fill="#fb7500"
         d="m 504.5,338.5 c 0.333,0 0.667,0 1,0 0,13 0,26 0,39 -0.333,0 -0.667,0 -1,0 0.157,-1.373 -0.01,-2.707 -0.5,-4 -21.667,6 -43.333,12 -65,18 -0.174,-4.851 -0.674,-9.518 -1.5,-14 0,-6.333 0,-12.667 0,-19 0.827,5.151 1.327,10.484 1.5,16 21.406,-6.06 42.906,-11.894 64.5,-17.5 0.976,-6.076 1.31,-12.242 1,-18.5 z"
         id="path64" />
    </g>
    <g
       id="g65">
      <path
         style="opacity:1"
         fill="#fc8100"
         d="m 413.5,363.5 c 0.4,6.142 -0.267,12.142 -2,18 -23.362,6.34 -46.696,12.673 -70,19 0,-6 0,-12 0,-18 22.642,-7.248 45.642,-13.748 69,-19.5 1.467,-1.098 2.301,-2.598 2.5,-4.5 0.494,1.634 0.66,3.301 0.5,5 z"
         id="path65" />
    </g>
    <g
       id="g66">
      <path
         style="opacity:1"
         fill="#c65800"
         d="m 504.5,288.5 c 0.819,2.805 1.319,5.805 1.5,9 0.831,35.836 0.664,71.502 -0.5,107 0,-9 0,-18 0,-27 0,-13 0,-26 0,-39 0.329,-12.844 -0.005,-25.511 -1,-38 0,-4 0,-8 0,-12 z"
         id="path66" />
    </g>
    <g
       id="g67">
      <path
         style="opacity:1"
         fill="#fb6900"
         d="m 504.5,377.5 c 0,5 0,10 0,15 -21.994,5.664 -43.994,11.331 -66,17 0.315,-3.871 -0.018,-7.538 -1,-11 0,-7 0,-14 0,-21 0.826,4.482 1.326,9.149 1.5,14 21.667,-6 43.333,-12 65,-18 0.49,1.293 0.657,2.627 0.5,4 z"
         id="path67" />
    </g>
    <g
       id="g68">
      <path
         style="opacity:1"
         fill="#d58500"
         d="m 180.5,376.5 c -8.797,4.037 -18.13,6.704 -28,8 9.14,-2.955 18.474,-5.622 28,-8 z"
         id="path68" />
    </g>
    <g
       id="g69">
      <path
         style="opacity:1"
         fill="#fb7500"
         d="m 413.5,363.5 c 0.333,0 0.667,0 1,0 0,6 0,12 0,18 -0.805,5.516 -1.472,11.182 -2,17 -23.284,6.206 -46.617,12.206 -70,18 0.268,1.599 -0.066,2.932 -1,4 0,-6.667 0,-13.333 0,-20 23.304,-6.327 46.638,-12.66 70,-19 1.733,-5.858 2.4,-11.858 2,-18 z"
         id="path69" />
    </g>
    <g
       id="g70">
      <path
         style="opacity:1"
         fill="#fa5f00"
         d="m 504.5,377.5 c 0.333,0 0.667,0 1,0 0,9 0,18 0,27 -21.835,6.294 -43.835,12.294 -66,18 -1.967,-7.597 -2.634,-15.597 -2,-24 0.982,3.462 1.315,7.129 1,11 22.006,-5.669 44.006,-11.336 66,-17 0,-5 0,-10 0,-15 z"
         id="path70" />
    </g>
    <g
       id="g71">
      <path
         style="opacity:0.988"
         fill="#fca100"
         d="m 152.5,384.5 c -1.802,0.958 -3.802,1.625 -6,2 -0.991,6.479 -1.324,13.146 -1,20 -23.984,5.165 -47.9844,11.331 -72,18.5 -0.6905,1.067 -1.1905,2.234 -1.5,3.5 -0.21,-1.558 -0.71,-2.891 -1.5,-4 0,-5.333 0,-10.667 0,-16 0.7216,-0.418 1.2216,-1.084 1.5,-2 27.0465,-6.305 53.88,-13.638 80.5,-22 z"
         id="path71" />
    </g>
    <g
       id="g72">
      <path
         style="opacity:1"
         fill="#d76300"
         d="m 340.5,366.5 c 0.988,5.14 1.321,10.474 1,16 0,6 0,12 0,18 0,6.667 0,13.333 0,20 0,5 0,10 0,15 -0.342,0.838 -1.008,1.172 -2,1 0.989,-23.258 1.323,-46.592 1,-70 z"
         id="path72" />
    </g>
    <g
       id="g73">
      <path
         style="opacity:1"
         fill="#fb6900"
         d="m 414.5,381.5 c 0,7.333 0,14.667 0,22 -0.498,4.531 -1.498,9.031 -3,13.5 -23.323,6.276 -46.657,12.442 -70,18.5 0,-5 0,-10 0,-15 0.934,-1.068 1.268,-2.401 1,-4 23.383,-5.794 46.716,-11.794 70,-18 0.528,-5.818 1.195,-11.484 2,-17 z"
         id="path73" />
    </g>
    <g
       id="g74">
      <path
         style="opacity:0.964"
         fill="#fc9400"
         d="m 145.5,406.5 c 0,6.667 0,13.333 0,20 -0.765,-0.423 -1.598,-0.757 -2.5,-1 -23.085,6.396 -46.2515,12.396 -69.5,18 -1.1289,3.009 -2.1289,6.009 -3,9 0,-9.333 0,-18.667 0,-28 0.79,1.109 1.29,2.442 1.5,4 0.3095,-1.266 0.8095,-2.433 1.5,-3.5 24.0156,-7.169 48.016,-13.335 72,-18.5 z"
         id="path74" />
    </g>
    <g
       id="g75">
      <path
         style="opacity:0.993"
         fill="#fa5f00"
         d="m 414.5,403.5 c 0,8.667 0,17.333 0,26 -23.644,6.149 -47.311,12.316 -71,18.5 -1.442,0.377 -2.442,1.21 -3,2.5 -0.986,-4.47 -1.319,-9.137 -1,-14 0.992,0.172 1.658,-0.162 2,-1 23.343,-6.058 46.677,-12.224 70,-18.5 1.502,-4.469 2.502,-8.969 3,-13.5 z"
         id="path75" />
    </g>
    <g
       id="g76">
      <path
         style="opacity:0.975"
         fill="#fc8800"
         d="m 145.5,426.5 c 0.323,6.522 -0.01,12.855 -1,19 0.157,-1.373 -0.01,-2.707 -0.5,-4 -22.74,6.394 -45.5729,12.56 -68.5,18.5 -1.3491,0.772 -2.1824,1.939 -2.5,3.5 -0.3333,-1 -0.6667,-2 -1,-3 -0.21,1.558 -0.71,2.891 -1.5,4 0,-4 0,-8 0,-12 0.8711,-2.991 1.8711,-5.991 3,-9 23.2485,-5.604 46.415,-11.604 69.5,-18 0.902,0.243 1.735,0.577 2.5,1 z"
         id="path76" />
    </g>
    <g
       id="g77">
      <path
         style="opacity:0.991"
         fill="#fc7b00"
         d="m 144.5,445.5 c 0,5.333 0,10.667 0,16 -23.662,5.79 -47.162,12.124 -70.5,19 -1.6162,-2.213 -2.7828,-4.547 -3.5,-7 0,-3 0,-6 0,-9 0.79,-1.109 1.29,-2.442 1.5,-4 0.3333,1 0.6667,2 1,3 0.3176,-1.561 1.1509,-2.728 2.5,-3.5 22.9271,-5.94 45.76,-12.106 68.5,-18.5 0.49,1.293 0.657,2.627 0.5,4 z"
         id="path77" />
    </g>
    <g
       id="g78">
      <path
         style="opacity:0.978"
         fill="#f86e00"
         d="m 146.5,386.5 c 0.332,38.504 -0.001,76.837 -1,115 0.167,-11.671 0,-23.338 -0.5,-35 -0.499,3.986 -0.666,7.986 -0.5,12 -23.018,5.838 -46.0176,11.838 -69,18 -1.6651,1.323 -3.3317,2.656 -5,4 0,-9 0,-18 0,-27 0.7172,2.453 1.8838,4.787 3.5,7 23.338,-6.876 46.838,-13.21 70.5,-19 0,-5.333 0,-10.667 0,-16 0.99,-6.145 1.323,-12.478 1,-19 0,-6.667 0,-13.333 0,-20 -0.324,-6.854 0.009,-13.521 1,-20 z"
         id="path78" />
    </g>
    <g
       id="g79">
      <path
         style="opacity:0.994"
         fill="#fb6200"
         d="m 145.5,501.5 c -24.571,5.912 -48.9046,12.579 -73,20 -0.6174,0.111 -1.1174,0.444 -1.5,1 -0.4997,-7.326 -0.6663,-14.659 -0.5,-22 1.6683,-1.344 3.3349,-2.677 5,-4 22.9824,-6.162 45.982,-12.162 69,-18 -0.166,-4.014 0.001,-8.014 0.5,-12 0.5,11.662 0.667,23.329 0.5,35 z"
         id="path79" />
    </g>
  </g>
</svg>
